<mxfile host="app.diagrams.net" agent="Mozilla/5.0 (Windows NT 10.0; Win64; x64) AppleWebKit/537.36 (KHTML, like Gecko) Chrome/134.0.0.0 Safari/537.36" version="26.0.5">
  <diagram name="第 1 页" id="Bsp2av9XndAxbZshPBOx">
    <mxGraphModel dx="1616" dy="837" grid="1" gridSize="10" guides="1" tooltips="1" connect="1" arrows="1" fold="1" page="1" pageScale="1" pageWidth="827" pageHeight="1169" math="0" shadow="0">
      <root>
        <mxCell id="0" />
        <mxCell id="1" parent="0" />
        <mxCell id="95v344-BZGEqV2dCjM4N-1" value="带有MCP客户端的工具如VsCode、IDE、Web" style="rounded=0;whiteSpace=wrap;html=1;" vertex="1" parent="1">
          <mxGeometry x="40" y="270" width="120" height="60" as="geometry" />
        </mxCell>
        <mxCell id="95v344-BZGEqV2dCjM4N-2" value="MCP 服务器 A" style="rounded=0;whiteSpace=wrap;html=1;" vertex="1" parent="1">
          <mxGeometry x="250" y="180" width="120" height="60" as="geometry" />
        </mxCell>
        <mxCell id="95v344-BZGEqV2dCjM4N-4" value="MCP 服务器 B" style="rounded=0;whiteSpace=wrap;html=1;" vertex="1" parent="1">
          <mxGeometry x="250" y="270" width="120" height="60" as="geometry" />
        </mxCell>
        <mxCell id="95v344-BZGEqV2dCjM4N-5" value="MCP 服务器 C" style="rounded=0;whiteSpace=wrap;html=1;" vertex="1" parent="1">
          <mxGeometry x="250" y="360" width="120" height="60" as="geometry" />
        </mxCell>
      </root>
    </mxGraphModel>
  </diagram>
</mxfile>
